# MagicaVoxel @ Ephtracy

# group
o 

# material
mtllib portal 2.mtl
usemtl palette

# normals
vn -1 0 0
vn 1 0 0
vn 0 -1 0
vn 0 1 0
vn 0 0 -1
vn 0 0 1

# texcoords
vt 0.880859 0.5
vt 0.958984 0.5

# verts
v -0.8 1 -0.1
v -0.8 2 -0.1
v -0.8 1 0
v -0.8 2 0
v -0.7 0.6 -0.1
v -0.7 1 -0.1
v -0.7 2 -0.1
v -0.7 2.4 -0.1
v -0.7 0.6 0
v -0.7 1 0
v -0.7 2 0
v -0.7 2.4 0
v -0.6 0.4 -0.1
v -0.6 0.6 -0.1
v -0.6 2.4 -0.1
v -0.6 2.6 -0.1
v -0.6 0.4 0
v -0.6 0.6 0
v -0.6 2.4 0
v -0.6 2.6 0
v -0.5 0.3 -0.1
v -0.5 0.4 -0.1
v -0.5 2.6 -0.1
v -0.5 2.7 -0.1
v -0.5 0.3 0
v -0.5 0.4 0
v -0.5 2.6 0
v -0.5 2.7 0
v -0.4 0.2 -0.1
v -0.4 0.3 -0.1
v -0.4 2.7 -0.1
v -0.4 2.8 -0.1
v -0.4 0.2 0
v -0.4 0.3 0
v -0.4 2.7 0
v -0.4 2.8 0
v -0.3 0.1 -0.1
v -0.3 0.2 -0.1
v -0.3 2.8 -0.1
v -0.3 2.9 -0.1
v -0.3 0.1 0
v -0.3 0.2 0
v -0.3 2.8 0
v -0.3 2.9 0
v -0.2 0 -0.1
v -0.2 0.1 -0.1
v -0.2 2.9 -0.1
v -0.2 3 -0.1
v -0.2 0 0
v -0.2 0.1 0
v -0.2 2.9 0
v -0.2 3 0
v 0.2 0 -0.1
v 0.2 0.1 -0.1
v 0.2 2.9 -0.1
v 0.2 3 -0.1
v 0.2 0 0
v 0.2 0.1 0
v 0.2 2.9 0
v 0.2 3 0
v 0.3 0.1 -0.1
v 0.3 0.2 -0.1
v 0.3 2.8 -0.1
v 0.3 2.9 -0.1
v 0.3 0.1 0
v 0.3 0.2 0
v 0.3 2.8 0
v 0.3 2.9 0
v 0.4 0.2 -0.1
v 0.4 0.3 -0.1
v 0.4 2.7 -0.1
v 0.4 2.8 -0.1
v 0.4 0.2 0
v 0.4 0.3 0
v 0.4 2.7 0
v 0.4 2.8 0
v 0.5 0.3 -0.1
v 0.5 0.4 -0.1
v 0.5 2.6 -0.1
v 0.5 2.7 -0.1
v 0.5 0.3 0
v 0.5 0.4 0
v 0.5 2.6 0
v 0.5 2.7 0
v 0.6 0.4 -0.1
v 0.6 0.6 -0.1
v 0.6 2.4 -0.1
v 0.6 2.6 -0.1
v 0.6 0.4 0
v 0.6 0.6 0
v 0.6 2.4 0
v 0.6 2.6 0
v 0.7 0.6 -0.1
v 0.7 1 -0.1
v 0.7 2 -0.1
v 0.7 2.4 -0.1
v 0.7 0.6 0
v 0.7 1 0
v 0.7 2 0
v 0.7 2.4 0
v 0.8 1 -0.1
v 0.8 2 -0.1
v 0.8 1 0
v 0.8 2 0
v -0.2 0 -0.1
v -0.2 0 0
v 0.2 0 -0.1
v 0.2 0 0
v -0.3 0.1 -0.1
v -0.3 0.1 0
v -0.2 0.1 -0.1
v -0.2 0.1 0
v 0.2 0.1 -0.1
v 0.2 0.1 0
v 0.3 0.1 -0.1
v 0.3 0.1 0
v -0.4 0.2 -0.1
v -0.4 0.2 0
v -0.3 0.2 -0.1
v -0.3 0.2 0
v 0.3 0.2 -0.1
v 0.3 0.2 0
v 0.4 0.2 -0.1
v 0.4 0.2 0
v -0.5 0.3 -0.1
v -0.5 0.3 0
v -0.4 0.3 -0.1
v -0.4 0.3 0
v 0.4 0.3 -0.1
v 0.4 0.3 0
v 0.5 0.3 -0.1
v 0.5 0.3 0
v -0.6 0.4 -0.1
v -0.6 0.4 0
v -0.5 0.4 -0.1
v -0.5 0.4 0
v 0.5 0.4 -0.1
v 0.5 0.4 0
v 0.6 0.4 -0.1
v 0.6 0.4 0
v -0.7 0.6 -0.1
v -0.7 0.6 0
v -0.6 0.6 -0.1
v -0.6 0.6 0
v 0.6 0.6 -0.1
v 0.6 0.6 0
v 0.7 0.6 -0.1
v 0.7 0.6 0
v -0.8 1 -0.1
v -0.8 1 0
v -0.7 1 -0.1
v -0.7 1 0
v 0.7 1 -0.1
v 0.7 1 0
v 0.8 1 -0.1
v 0.8 1 0
v -0.8 2 -0.1
v -0.8 2 0
v -0.7 2 -0.1
v -0.7 2 0
v 0.7 2 -0.1
v 0.7 2 0
v 0.8 2 -0.1
v 0.8 2 0
v -0.7 2.4 -0.1
v -0.7 2.4 0
v -0.6 2.4 -0.1
v -0.6 2.4 0
v 0.6 2.4 -0.1
v 0.6 2.4 0
v 0.7 2.4 -0.1
v 0.7 2.4 0
v -0.6 2.6 -0.1
v -0.6 2.6 0
v -0.5 2.6 -0.1
v -0.5 2.6 0
v 0.5 2.6 -0.1
v 0.5 2.6 0
v 0.6 2.6 -0.1
v 0.6 2.6 0
v -0.5 2.7 -0.1
v -0.5 2.7 0
v -0.4 2.7 -0.1
v -0.4 2.7 0
v 0.4 2.7 -0.1
v 0.4 2.7 0
v 0.5 2.7 -0.1
v 0.5 2.7 0
v -0.4 2.8 -0.1
v -0.4 2.8 0
v -0.3 2.8 -0.1
v -0.3 2.8 0
v 0.3 2.8 -0.1
v 0.3 2.8 0
v 0.4 2.8 -0.1
v 0.4 2.8 0
v -0.3 2.9 -0.1
v -0.3 2.9 0
v -0.2 2.9 -0.1
v -0.2 2.9 0
v 0.2 2.9 -0.1
v 0.2 2.9 0
v 0.3 2.9 -0.1
v 0.3 2.9 0
v -0.2 3 -0.1
v -0.2 3 0
v 0.2 3 -0.1
v 0.2 3 0
v -0.2 0 -0.1
v 0.2 0 -0.1
v -0.3 0.1 -0.1
v -0.2 0.1 -0.1
v 0.2 0.1 -0.1
v 0.3 0.1 -0.1
v -0.4 0.2 -0.1
v -0.3 0.2 -0.1
v -0.2 0.2 -0.1
v 0.2 0.2 -0.1
v 0.3 0.2 -0.1
v 0.4 0.2 -0.1
v -0.5 0.3 -0.1
v -0.4 0.3 -0.1
v -0.3 0.3 -0.1
v 0.3 0.3 -0.1
v 0.4 0.3 -0.1
v 0.5 0.3 -0.1
v -0.6 0.4 -0.1
v -0.5 0.4 -0.1
v -0.4 0.4 -0.1
v 0.4 0.4 -0.1
v 0.5 0.4 -0.1
v 0.6 0.4 -0.1
v -0.7 0.6 -0.1
v -0.6 0.6 -0.1
v -0.5 0.6 -0.1
v 0.5 0.6 -0.1
v 0.6 0.6 -0.1
v 0.7 0.6 -0.1
v -0.8 1 -0.1
v -0.7 1 -0.1
v -0.6 1 -0.1
v 0.6 1 -0.1
v 0.7 1 -0.1
v 0.8 1 -0.1
v -0.8 2 -0.1
v -0.7 2 -0.1
v -0.6 2 -0.1
v 0.6 2 -0.1
v 0.7 2 -0.1
v 0.8 2 -0.1
v -0.7 2.4 -0.1
v -0.6 2.4 -0.1
v -0.5 2.4 -0.1
v 0.5 2.4 -0.1
v 0.6 2.4 -0.1
v 0.7 2.4 -0.1
v -0.6 2.6 -0.1
v -0.5 2.6 -0.1
v -0.4 2.6 -0.1
v 0.4 2.6 -0.1
v 0.5 2.6 -0.1
v 0.6 2.6 -0.1
v -0.5 2.7 -0.1
v -0.4 2.7 -0.1
v -0.3 2.7 -0.1
v 0.3 2.7 -0.1
v 0.4 2.7 -0.1
v 0.5 2.7 -0.1
v -0.4 2.8 -0.1
v -0.3 2.8 -0.1
v -0.2 2.8 -0.1
v 0.2 2.8 -0.1
v 0.3 2.8 -0.1
v 0.4 2.8 -0.1
v -0.3 2.9 -0.1
v -0.2 2.9 -0.1
v 0.2 2.9 -0.1
v 0.3 2.9 -0.1
v -0.2 3 -0.1
v 0.2 3 -0.1
v -0.2 0 0
v 0.2 0 0
v -0.3 0.1 0
v -0.2 0.1 0
v 0.2 0.1 0
v 0.3 0.1 0
v -0.4 0.2 0
v -0.3 0.2 0
v -0.2 0.2 0
v 0.2 0.2 0
v 0.3 0.2 0
v 0.4 0.2 0
v -0.5 0.3 0
v -0.4 0.3 0
v -0.3 0.3 0
v 0.3 0.3 0
v 0.4 0.3 0
v 0.5 0.3 0
v -0.6 0.4 0
v -0.5 0.4 0
v -0.4 0.4 0
v 0.4 0.4 0
v 0.5 0.4 0
v 0.6 0.4 0
v -0.7 0.6 0
v -0.6 0.6 0
v -0.5 0.6 0
v 0.5 0.6 0
v 0.6 0.6 0
v 0.7 0.6 0
v -0.8 1 0
v -0.7 1 0
v -0.6 1 0
v 0.6 1 0
v 0.7 1 0
v 0.8 1 0
v -0.8 2 0
v -0.7 2 0
v -0.6 2 0
v 0.6 2 0
v 0.7 2 0
v 0.8 2 0
v -0.7 2.4 0
v -0.6 2.4 0
v -0.5 2.4 0
v 0.5 2.4 0
v 0.6 2.4 0
v 0.7 2.4 0
v -0.6 2.6 0
v -0.5 2.6 0
v -0.4 2.6 0
v 0.4 2.6 0
v 0.5 2.6 0
v 0.6 2.6 0
v -0.5 2.7 0
v -0.4 2.7 0
v -0.3 2.7 0
v 0.3 2.7 0
v 0.4 2.7 0
v 0.5 2.7 0
v -0.4 2.8 0
v -0.3 2.8 0
v -0.2 2.8 0
v 0.2 2.8 0
v 0.3 2.8 0
v 0.4 2.8 0
v -0.3 2.9 0
v -0.2 2.9 0
v 0.2 2.9 0
v 0.3 2.9 0
v -0.2 3 0
v 0.2 3 0

# faces
f 3/1/1 2/1/1 1/1/1
f 4/1/1 2/1/1 3/1/1
f 9/1/1 6/1/1 5/1/1
f 10/1/1 6/1/1 9/1/1
f 11/1/1 8/1/1 7/1/1
f 12/1/1 8/1/1 11/1/1
f 17/1/1 14/1/1 13/1/1
f 18/1/1 14/1/1 17/1/1
f 19/1/1 16/1/1 15/1/1
f 20/1/1 16/1/1 19/1/1
f 25/1/1 22/1/1 21/1/1
f 26/1/1 22/1/1 25/1/1
f 27/1/1 24/1/1 23/1/1
f 28/1/1 24/1/1 27/1/1
f 33/1/1 30/1/1 29/1/1
f 34/1/1 30/1/1 33/1/1
f 35/1/1 32/1/1 31/1/1
f 36/1/1 32/1/1 35/1/1
f 41/1/1 38/1/1 37/1/1
f 42/1/1 38/1/1 41/1/1
f 43/1/1 40/1/1 39/1/1
f 44/1/1 40/1/1 43/1/1
f 49/1/1 46/1/1 45/1/1
f 50/1/1 46/1/1 49/1/1
f 51/1/1 48/1/1 47/1/1
f 52/1/1 48/1/1 51/1/1
f 53/1/2 54/1/2 57/1/2
f 57/1/2 54/1/2 58/1/2
f 55/1/2 56/1/2 59/1/2
f 59/1/2 56/1/2 60/1/2
f 61/1/2 62/1/2 65/1/2
f 65/1/2 62/1/2 66/1/2
f 63/1/2 64/1/2 67/1/2
f 67/1/2 64/1/2 68/1/2
f 69/1/2 70/1/2 73/1/2
f 73/1/2 70/1/2 74/1/2
f 71/1/2 72/1/2 75/1/2
f 75/1/2 72/1/2 76/1/2
f 77/1/2 78/1/2 81/1/2
f 81/1/2 78/1/2 82/1/2
f 79/1/2 80/1/2 83/1/2
f 83/1/2 80/1/2 84/1/2
f 85/1/2 86/1/2 89/1/2
f 89/1/2 86/1/2 90/1/2
f 87/1/2 88/1/2 91/1/2
f 91/1/2 88/1/2 92/1/2
f 93/1/2 94/1/2 97/1/2
f 97/1/2 94/1/2 98/1/2
f 95/1/2 96/1/2 99/1/2
f 99/1/2 96/1/2 100/1/2
f 101/1/2 102/1/2 103/1/2
f 103/1/2 102/1/2 104/1/2
f 107/1/3 106/1/3 105/1/3
f 108/1/3 106/1/3 107/1/3
f 111/1/3 110/1/3 109/1/3
f 112/1/3 110/1/3 111/1/3
f 115/1/3 114/1/3 113/1/3
f 116/1/3 114/1/3 115/1/3
f 119/1/3 118/1/3 117/1/3
f 120/1/3 118/1/3 119/1/3
f 123/1/3 122/1/3 121/1/3
f 124/1/3 122/1/3 123/1/3
f 127/1/3 126/1/3 125/1/3
f 128/1/3 126/1/3 127/1/3
f 131/1/3 130/1/3 129/1/3
f 132/1/3 130/1/3 131/1/3
f 135/1/3 134/1/3 133/1/3
f 136/1/3 134/1/3 135/1/3
f 139/1/3 138/1/3 137/1/3
f 140/1/3 138/1/3 139/1/3
f 143/1/3 142/1/3 141/1/3
f 144/1/3 142/1/3 143/1/3
f 147/1/3 146/1/3 145/1/3
f 148/1/3 146/1/3 147/1/3
f 151/1/3 150/1/3 149/1/3
f 152/1/3 150/1/3 151/1/3
f 155/1/3 154/1/3 153/1/3
f 156/1/3 154/1/3 155/1/3
f 157/1/4 158/1/4 159/1/4
f 159/1/4 158/1/4 160/1/4
f 161/1/4 162/1/4 163/1/4
f 163/1/4 162/1/4 164/1/4
f 165/1/4 166/1/4 167/1/4
f 167/1/4 166/1/4 168/1/4
f 169/1/4 170/1/4 171/1/4
f 171/1/4 170/1/4 172/1/4
f 173/1/4 174/1/4 175/1/4
f 175/1/4 174/1/4 176/1/4
f 177/1/4 178/1/4 179/1/4
f 179/1/4 178/1/4 180/1/4
f 181/1/4 182/1/4 183/1/4
f 183/1/4 182/1/4 184/1/4
f 185/1/4 186/1/4 187/1/4
f 187/1/4 186/1/4 188/1/4
f 189/1/4 190/1/4 191/1/4
f 191/1/4 190/1/4 192/1/4
f 193/1/4 194/1/4 195/1/4
f 195/1/4 194/1/4 196/1/4
f 197/1/4 198/1/4 199/1/4
f 199/1/4 198/1/4 200/1/4
f 201/1/4 202/1/4 203/1/4
f 203/1/4 202/1/4 204/1/4
f 205/1/4 206/1/4 207/1/4
f 207/1/4 206/1/4 208/1/4
f 212/1/5 210/1/5 209/1/5
f 213/1/5 210/1/5 212/1/5
f 216/1/5 212/1/5 211/1/5
f 217/2/5 213/2/5 212/2/5
f 217/1/5 212/1/5 216/1/5
f 218/1/5 214/1/5 213/1/5
f 218/2/5 213/2/5 217/2/5
f 219/1/5 214/1/5 218/1/5
f 222/1/5 216/1/5 215/1/5
f 223/2/5 217/2/5 216/2/5
f 223/2/5 218/2/5 217/2/5
f 223/1/5 216/1/5 222/1/5
f 223/2/5 219/2/5 218/2/5
f 224/1/5 220/1/5 219/1/5
f 224/2/5 219/2/5 223/2/5
f 225/1/5 220/1/5 224/1/5
f 228/1/5 222/1/5 221/1/5
f 229/2/5 223/2/5 222/2/5
f 229/2/5 224/2/5 223/2/5
f 229/1/5 222/1/5 228/1/5
f 229/2/5 225/2/5 224/2/5
f 230/1/5 226/1/5 225/1/5
f 230/2/5 225/2/5 229/2/5
f 231/1/5 226/1/5 230/1/5
f 234/1/5 228/1/5 227/1/5
f 235/2/5 229/2/5 228/2/5
f 235/2/5 230/2/5 229/2/5
f 235/1/5 228/1/5 234/1/5
f 235/2/5 231/2/5 230/2/5
f 236/1/5 232/1/5 231/1/5
f 236/2/5 231/2/5 235/2/5
f 237/1/5 232/1/5 236/1/5
f 240/1/5 234/1/5 233/1/5
f 241/2/5 235/2/5 234/2/5
f 241/2/5 236/2/5 235/2/5
f 241/1/5 234/1/5 240/1/5
f 241/2/5 237/2/5 236/2/5
f 242/1/5 238/1/5 237/1/5
f 242/2/5 237/2/5 241/2/5
f 243/1/5 238/1/5 242/1/5
f 245/1/5 240/1/5 239/1/5
f 246/2/5 241/2/5 240/2/5
f 246/1/5 240/1/5 245/1/5
f 246/2/5 242/2/5 241/2/5
f 246/2/5 243/2/5 242/2/5
f 247/2/5 243/2/5 246/2/5
f 248/2/5 243/2/5 247/2/5
f 249/1/5 244/1/5 243/1/5
f 249/2/5 243/2/5 248/2/5
f 250/1/5 244/1/5 249/1/5
f 251/1/5 247/1/5 246/1/5
f 252/2/5 248/2/5 247/2/5
f 252/1/5 247/1/5 251/1/5
f 253/2/5 248/2/5 252/2/5
f 254/2/5 248/2/5 253/2/5
f 255/1/5 249/1/5 248/1/5
f 255/2/5 248/2/5 254/2/5
f 256/1/5 249/1/5 255/1/5
f 257/1/5 253/1/5 252/1/5
f 258/2/5 254/2/5 253/2/5
f 258/1/5 253/1/5 257/1/5
f 259/2/5 254/2/5 258/2/5
f 260/2/5 254/2/5 259/2/5
f 261/1/5 255/1/5 254/1/5
f 261/2/5 254/2/5 260/2/5
f 262/1/5 255/1/5 261/1/5
f 263/1/5 259/1/5 258/1/5
f 264/2/5 260/2/5 259/2/5
f 264/1/5 259/1/5 263/1/5
f 265/2/5 260/2/5 264/2/5
f 266/2/5 260/2/5 265/2/5
f 267/1/5 261/1/5 260/1/5
f 267/2/5 260/2/5 266/2/5
f 268/1/5 261/1/5 267/1/5
f 269/1/5 265/1/5 264/1/5
f 270/2/5 266/2/5 265/2/5
f 270/1/5 265/1/5 269/1/5
f 271/2/5 266/2/5 270/2/5
f 272/2/5 266/2/5 271/2/5
f 273/1/5 267/1/5 266/1/5
f 273/2/5 266/2/5 272/2/5
f 274/1/5 267/1/5 273/1/5
f 275/1/5 271/1/5 270/1/5
f 276/2/5 272/2/5 271/2/5
f 276/1/5 271/1/5 275/1/5
f 277/1/5 273/1/5 272/1/5
f 277/2/5 272/2/5 276/2/5
f 278/1/5 273/1/5 277/1/5
f 279/1/5 277/1/5 276/1/5
f 280/1/5 277/1/5 279/1/5
f 281/1/6 282/1/6 284/1/6
f 284/1/6 282/1/6 285/1/6
f 283/1/6 284/1/6 288/1/6
f 284/2/6 285/2/6 289/2/6
f 288/1/6 284/1/6 289/1/6
f 285/1/6 286/1/6 290/1/6
f 289/2/6 285/2/6 290/2/6
f 290/1/6 286/1/6 291/1/6
f 287/1/6 288/1/6 294/1/6
f 288/2/6 289/2/6 295/2/6
f 289/2/6 290/2/6 295/2/6
f 294/1/6 288/1/6 295/1/6
f 290/2/6 291/2/6 295/2/6
f 291/1/6 292/1/6 296/1/6
f 295/2/6 291/2/6 296/2/6
f 296/1/6 292/1/6 297/1/6
f 293/1/6 294/1/6 300/1/6
f 294/2/6 295/2/6 301/2/6
f 295/2/6 296/2/6 301/2/6
f 300/1/6 294/1/6 301/1/6
f 296/2/6 297/2/6 301/2/6
f 297/1/6 298/1/6 302/1/6
f 301/2/6 297/2/6 302/2/6
f 302/1/6 298/1/6 303/1/6
f 299/1/6 300/1/6 306/1/6
f 300/2/6 301/2/6 307/2/6
f 301/2/6 302/2/6 307/2/6
f 306/1/6 300/1/6 307/1/6
f 302/2/6 303/2/6 307/2/6
f 303/1/6 304/1/6 308/1/6
f 307/2/6 303/2/6 308/2/6
f 308/1/6 304/1/6 309/1/6
f 305/1/6 306/1/6 312/1/6
f 306/2/6 307/2/6 313/2/6
f 307/2/6 308/2/6 313/2/6
f 312/1/6 306/1/6 313/1/6
f 308/2/6 309/2/6 313/2/6
f 309/1/6 310/1/6 314/1/6
f 313/2/6 309/2/6 314/2/6
f 314/1/6 310/1/6 315/1/6
f 311/1/6 312/1/6 317/1/6
f 312/2/6 313/2/6 318/2/6
f 317/1/6 312/1/6 318/1/6
f 313/2/6 314/2/6 318/2/6
f 314/2/6 315/2/6 318/2/6
f 318/2/6 315/2/6 319/2/6
f 319/2/6 315/2/6 320/2/6
f 315/1/6 316/1/6 321/1/6
f 320/2/6 315/2/6 321/2/6
f 321/1/6 316/1/6 322/1/6
f 318/1/6 319/1/6 323/1/6
f 319/2/6 320/2/6 324/2/6
f 323/1/6 319/1/6 324/1/6
f 324/2/6 320/2/6 325/2/6
f 325/2/6 320/2/6 326/2/6
f 320/1/6 321/1/6 327/1/6
f 326/2/6 320/2/6 327/2/6
f 327/1/6 321/1/6 328/1/6
f 324/1/6 325/1/6 329/1/6
f 325/2/6 326/2/6 330/2/6
f 329/1/6 325/1/6 330/1/6
f 330/2/6 326/2/6 331/2/6
f 331/2/6 326/2/6 332/2/6
f 326/1/6 327/1/6 333/1/6
f 332/2/6 326/2/6 333/2/6
f 333/1/6 327/1/6 334/1/6
f 330/1/6 331/1/6 335/1/6
f 331/2/6 332/2/6 336/2/6
f 335/1/6 331/1/6 336/1/6
f 336/2/6 332/2/6 337/2/6
f 337/2/6 332/2/6 338/2/6
f 332/1/6 333/1/6 339/1/6
f 338/2/6 332/2/6 339/2/6
f 339/1/6 333/1/6 340/1/6
f 336/1/6 337/1/6 341/1/6
f 337/2/6 338/2/6 342/2/6
f 341/1/6 337/1/6 342/1/6
f 342/2/6 338/2/6 343/2/6
f 343/2/6 338/2/6 344/2/6
f 338/1/6 339/1/6 345/1/6
f 344/2/6 338/2/6 345/2/6
f 345/1/6 339/1/6 346/1/6
f 342/1/6 343/1/6 347/1/6
f 343/2/6 344/2/6 348/2/6
f 347/1/6 343/1/6 348/1/6
f 344/1/6 345/1/6 349/1/6
f 348/2/6 344/2/6 349/2/6
f 349/1/6 345/1/6 350/1/6
f 348/1/6 349/1/6 351/1/6
f 351/1/6 349/1/6 352/1/6
